<?xml version="1.0" encoding="utf-8"?>
<!-- Generator: Adobe Illustrator 16.0.0, SVG Export Plug-In . SVG Version: 6.00 Build 0)  -->
<!DOCTYPE svg PUBLIC "-//W3C//DTD SVG 1.1//EN" "http://www.w3.org/Graphics/SVG/1.1/DTD/svg11.dtd">
<svg version="1.1" id="圖層_1" xmlns="http://www.w3.org/2000/svg" xmlns:xlink="http://www.w3.org/1999/xlink" x="0px" y="0px"
	 width="595.279px" height="841.89px" viewBox="0 0 595.279 841.89" enable-background="new 0 0 595.279 841.89"
	 xml:space="preserve">
<title>waste-basket-15.svg</title>
<rect x="95.244" y="203.833" fill="none" width="377.011" height="377.01"/>
<g>
	<path fill="#FFFFFF" d="M222.238,529.253c-7.937,0-13.89-5.953-15.874-11.906v-1.984l-25.795-160.726
		c0-9.921,3.969-17.858,13.89-19.842h1.984h178.584c9.921,0,15.874,7.937,17.858,17.858c0,0,0,0,0,1.984l-25.796,160.726
		c0,7.938-7.937,13.891-17.858,13.891H222.238z M184.537,330.826c-9.922,0-17.858-7.937-17.858-17.858s7.937-17.858,17.858-17.858
		h41.669v-21.827c0-9.921,7.938-17.858,17.858-17.858h79.371c9.921,0,17.858,7.937,17.858,17.858v21.827h41.669
		c9.922,0,17.858,7.937,17.858,17.858s-7.937,17.858-17.858,17.858H184.537z M305.577,295.109v-3.969h-43.654v3.969H305.577z"/>
	<path fill="#8A8A8A" d="M323.436,263.361c5.952,0,9.921,3.969,9.921,9.921v29.764h49.606c5.953,0,9.922,3.969,9.922,9.921
		s-3.969,9.921-9.922,9.921H184.537c-5.953,0-9.922-3.969-9.922-9.921s3.969-9.921,9.922-9.921h49.606v-29.764
		c0-5.953,3.969-9.921,9.921-9.921H323.436 M253.987,303.046h59.527v-19.843h-59.527V303.046 M371.058,342.732
		c5.953,0,9.921,3.968,9.921,11.905l-25.795,158.741c0,3.969-3.969,7.938-9.922,7.938H222.238c-3.968,0-7.937-3.969-9.921-7.938
		l-25.796-158.741c0-5.953,1.984-9.921,7.938-11.906h1.984L371.058,342.732 M380.979,352.653L380.979,352.653L380.979,352.653
		 M323.436,249.471h-79.371c-13.89,0-23.811,9.921-23.811,23.811v15.874h-35.717c-13.891,0-23.812,9.921-23.812,23.812
		c0,11.906,7.937,21.827,17.858,23.811c-3.969,3.969-5.953,9.921-5.953,17.858v1.984v1.984l25.796,158.741v1.984l1.984,1.984
		c3.968,7.938,11.905,15.875,23.811,15.875h123.024c13.891,0,23.812-9.922,23.812-21.828l25.796-158.741v-1.984v-1.984v-1.984l0,0
		c0-5.953-1.984-11.906-5.953-15.874c9.921-1.984,17.858-11.906,17.858-23.812c0-13.89-9.922-23.811-23.812-23.811h-35.717v-15.875
		C349.231,259.393,337.325,249.471,323.436,249.471L323.436,249.471z"/>
</g>
</svg>
